<svg width="22" height="22" viewBox="0 0 22 22" fill="none" xmlns="http://www.w3.org/2000/svg">
<ellipse cx="11.0002" cy="11" rx="10.8" ry="10.8" fill="#494F68"/>
<path d="M13.1665 12.1053C13.3406 11.7656 13.4334 11.3874 13.4334 10.9948C13.4334 9.64714 12.3427 8.55624 10.9948 8.55624C10.602 8.55624 10.224 8.649 9.88426 8.8231L7.28098 6.21982C6.98788 5.92673 6.51277 5.92673 6.21982 6.21982C5.92673 6.51277 5.92673 6.98788 6.21982 7.28098L8.8231 9.88425C8.649 10.224 8.55624 10.6022 8.55624 10.9948C8.55624 12.3425 9.64685 13.4334 10.9948 13.4334C11.3875 13.4334 11.7656 13.3406 12.1053 13.1665L12.7191 13.7802C13.012 14.0732 13.4873 14.0733 13.7802 13.7802C14.0733 13.4873 14.0733 13.0122 13.7802 12.7191L13.1665 12.1053ZM10.9948 11.9327C10.4765 11.9327 10.0569 11.5133 10.0569 10.9948C10.0569 10.4782 10.4756 10.0569 10.9948 10.0569C11.5131 10.0569 11.9327 10.4763 11.9327 10.9948C11.9327 11.5114 11.514 11.9327 10.9948 11.9327Z" fill="white"/>
</svg>
